<?xml version="1.0" encoding="UTF-8" standalone="no"?> <svg id="Layer_1" data-name="Layer 1" xmlns="http://www.w3.org/2000/svg" viewBox="0 0 512 512"><title>google-plus-glyph</title><g id="Google_" data-name="Google+"><path id="back" d="M512,256c0,141.39-114.61,256-256,256S0,397.39,0,256,114.62,0,256,0,512,114.62,512,256Z" fill="#262626"/><g id="Google_2" data-name="Google+"><path d="M112.7,256.12c-1.79-47,39.36-90.38,86.38-90.94,24-2,47.27,7.26,65.42,22.45-7.44,8.17-15,16.26-23.09,23.83-16-9.7-35.2-17.09-53.85-10.53-30.11,8.57-48.31,44.11-37.2,73.55,9.23,30.74,46.64,47.62,75.95,34.7,15.19-5.43,25.18-19.44,29.57-34.48-17.4-.34-34.8-.13-52.2-.62,0-10.35-.09-20.65,0-31,29,0,58.06-.13,87.12.14,1.77,25.35-2,52.49-18.44,72.84-22.58,29.05-64.29,37.58-98.21,26.19-36-11.83-62.2-48.1-61.41-86.12" fill="#fff"/><path d="M347.3,217h25.88c0,8.66.12,17.35.17,26,8.66.09,17.36.12,26,.18v25.92l-26,.13c-.08,8.7-.12,17.36-.17,26.05-8.66,0-17.31,0-25.93,0-.09-8.7-.09-17.36-.16-26-8.66-.09-17.36-.13-26-.17V243.16c8.64-.06,17.3-.09,26-.18,0-8.66.13-17.35.22-26" fill="#fff"/></g></g></svg>